<?xml version="1.0" encoding="UTF-8"?><svg id="_レイヤー_2" xmlns="http://www.w3.org/2000/svg" viewBox="0 0 476.64 616.34"><defs><style>.cls-1{fill:#2a94f4;}</style></defs><g id="_レイヤー_1-2"><g id="Layer_1"><path class="cls-1" d="M474.91,590.94c-29.35-60.1-80.66-106.68-143.38-130.15v-37.5c30.84-1.68,88.98-9.52,123.09-44.34,6.8-6.93,6.68-18.04-.26-24.83-2.14-2.09-4.77-3.6-7.66-4.39-.52-.12-45.46-15.52-36.44-107.32,3.92-39.12,3.26-74.33-1.82-104.57-5.89-34.69-17.66-61.95-34.77-80.99-18.57-20.47-42.72-30.9-71.86-30.9h-3.38c-11.11-9.65-35.45-25.96-72.58-25.96-18.55.21-36.89,3.86-54.1,10.77l-.78.25c-14.64,5.48-41.81,15.79-64.8,46.3-26.79,35.38-39.58,88.03-38.03,156.09,1.55,68.06-9.66,101.59-19.33,117.63-7.97,13.17-15.55,15.77-17.5,16.29-6.67-.52-12.02,2.88-15.43,8.61-3.41,5.73-2.21,13.31,1.69,19.04,1.57,2.34,10.72,14.61,32.8,26.47,25.22,13.48,56.7,21.26,93.94,22.83v35.85c-62.51,23.96-113.5,70.84-142.54,131.06-4.23,8.71-.59,19.19,8.13,23.41,2.39,1.16,5.01,1.76,7.67,1.76h441.51c6.06,0,11.69-3.11,14.92-8.23,3.16-5.19,3.5-11.61.91-17.1v-.07ZM47.91,580.67c28.16-43.28,70.34-75.63,119.53-91.66,7.29-2.31,12.25-9.03,12.29-16.65v-65.03s-8.41-17.63-18.14-18.7h-.14c-50.91,1.64-81.51-10.03-98.14-19.95,1.16-1.18,2.48-2.36,3.78-3.66,25.72-26.77,37.87-77.95,36.17-152.25-3.37-137.2,54.97-159.4,79.77-168.8l.79-.27c13.2-5.23,27.23-8.05,41.43-8.35,33.74,0,50.92,18.55,52.29,20.24,3.66,4.54,9.38,6.9,15.18,6.27,2.87-.25,5.74-.39,8.43-.39,18.93,0,33.94,6.26,45.7,19.31,24.8,27.43,34.98,85.27,27.68,158.56-7.32,74.02,15.79,111.11,35.78,129.12-26.9,14.88-94.01,20.15-94.01,20.15h-2.02c-4.76-.11-9.36,1.67-12.81,4.95-3.43,3.31-5.36,7.87-5.35,12.63v67.29c0,7.64,4.97,14.39,12.29,16.67,49.22,15.81,91.59,47.81,120.19,90.76H47.86l.05-.25Z"/></g></g></svg>