<?xml version="1.0" encoding="UTF-8"?><svg id="_レイヤー_2" xmlns="http://www.w3.org/2000/svg" xmlns:xlink="http://www.w3.org/1999/xlink" viewBox="0 0 762.43 810.93"><defs><style>.cls-1{fill:url(#_名称未設定グラデーション_2);isolation:isolate;opacity:.15;}</style><linearGradient id="_名称未設定グラデーション_2" x1="365.81" y1="4355.93" x2="-132.91" y2="5219.74" gradientTransform="translate(265 5242.85) scale(1 -1)" gradientUnits="userSpaceOnUse"><stop offset="0" stop-color="#43aced" stop-opacity="0"/><stop offset="1" stop-color="#231f20"/></linearGradient></defs><g id="_レイヤー_1-2"><g id="Layer_2"><path class="cls-1" d="M0,584.1l245.51,226.82h516.92v-485.8L342.29,10.69s-36.05,8.54-64.47,0-83.99-18.02-119.76-2.07c-35.78,15.94-71.05,64.1-79.67,170.97-8.62,106.88-37.9,157.63-37.9,157.63,0,0-8.62,15.5,37.9,31.86,46.52,16.36,70.63,21.54,70.63,21.54,0,0,7.76,33.58,7.76,42.17s-38.8,25.84-47.38,34.46c-8.59,8.62-109.39,116.84-109.39,116.84"/></g></g></svg>